<?xml version="1.0" encoding="UTF-8"?>
<svg version="1.1" xmlns="http://www.w3.org/2000/svg" width="1002" height="284">
<path d="M0 0 C330.66 0 661.32 0 1002 0 C1002 93.72 1002 187.44 1002 284 C671.34 284 340.68 284 0 284 C0 190.28 0 96.56 0 0 Z " fill="#FEFEFE" transform="translate(0,0)"/>
<path d="M0 0 C14.0289631 -0.70734268 33.06347807 4.36903627 43.94921875 13.1953125 C44.93921875 14.6803125 44.93921875 14.6803125 45.94921875 16.1953125 C43.96921875 15.8653125 41.98921875 15.5353125 39.94921875 15.1953125 C41.072437 18.34032361 42.02788272 19.24719725 44.88671875 21.1328125 C48.03089638 23.25031989 49.2780456 24.8529662 50.94921875 28.1953125 C50.28921875 28.1953125 49.62921875 28.1953125 48.94921875 28.1953125 C48.94921875 28.8553125 48.94921875 29.5153125 48.94921875 30.1953125 C50.43421875 30.6903125 50.43421875 30.6903125 51.94921875 31.1953125 C49.94921875 32.1953125 49.94921875 32.1953125 46.94921875 32.1953125 C47.51511719 32.89398438 48.08101563 33.59265625 48.6640625 34.3125 C49.39753906 35.22257812 50.13101563 36.13265625 50.88671875 37.0703125 C51.61761719 37.97523437 52.34851563 38.88015625 53.1015625 39.8125 C55.96970868 43.51137773 56.05013901 45.55298072 55.94921875 50.1953125 C54.46421875 50.6903125 54.46421875 50.6903125 52.94921875 51.1953125 C51.95921875 49.2153125 51.95921875 49.2153125 50.94921875 47.1953125 C50.61921875 51.8153125 50.28921875 56.4353125 49.94921875 61.1953125 C49.61921875 61.1953125 49.28921875 61.1953125 48.94921875 61.1953125 C48.80226563 60.50824219 48.6553125 59.82117188 48.50390625 59.11328125 C47.23389588 53.2561329 47.23389588 53.2561329 43.01171875 49.3828125 C42.00109375 48.9909375 40.99046875 48.5990625 39.94921875 48.1953125 C37.71636984 45.77107654 36.09302324 43.45791201 34.51171875 40.5703125 C31.85088956 36.52585214 28.79549447 35.42098603 24.19921875 34.1953125 C23.12671875 33.8653125 22.05421875 33.5353125 20.94921875 33.1953125 C20.61921875 32.2053125 20.28921875 31.2153125 19.94921875 30.1953125 C9.85943379 29.60564974 2.24558005 30.16350166 -7.16015625 34.19921875 C-10.0921129 35.20955516 -11.23022289 35.33859708 -14.05078125 34.1953125 C-12.73078125 33.5353125 -11.41078125 32.8753125 -10.05078125 32.1953125 C-19.17130835 34.40752546 -27.73353266 38.01045895 -34.05078125 45.1953125 C-38.64707217 53.8905345 -38.61890357 66.38745204 -36.1015625 75.7109375 C-34.92141548 78.67433505 -33.60813025 81.41371414 -32.05078125 84.1953125 C-31.68984375 84.86949219 -31.32890625 85.54367188 -30.95703125 86.23828125 C-25.42350204 95.190741 -14.60909377 100.30257981 -4.7109375 102.78125 C5.29197756 104.33823825 15.8635121 104.20297298 24.51171875 98.5078125 C24.98609375 98.0746875 25.46046875 97.6415625 25.94921875 97.1953125 C26.60921875 97.5253125 27.26921875 97.8553125 27.94921875 98.1953125 C23.73596767 103.98853274 19.57348505 107.19290034 12.48046875 108.73046875 C-5.99012752 111.09361857 -22.2762531 103.49365945 -37.05078125 93.1953125 C-29.59802436 104.0783118 -19.92549096 110.99953842 -6.9765625 113.87890625 C-4.33926515 114.36854532 -1.70535975 114.81176123 0.94921875 115.1953125 C0.28921875 115.8553125 -0.37078125 116.5153125 -1.05078125 117.1953125 C-8.29391353 116.96537179 -14.36511231 114.88207665 -21.05078125 112.1953125 C-21.05078125 112.8553125 -21.05078125 113.5153125 -21.05078125 114.1953125 C-22.04078125 114.1953125 -23.03078125 114.1953125 -24.05078125 114.1953125 C-24.05078125 113.5353125 -24.05078125 112.8753125 -24.05078125 112.1953125 C-24.76621094 111.93878906 -25.48164063 111.68226563 -26.21875 111.41796875 C-39.39703844 105.72858353 -47.88292371 94.69456926 -54.05078125 82.1953125 C-55.04078125 83.1853125 -55.04078125 83.1853125 -56.05078125 84.1953125 C-61.64304869 65.19658249 -61.2904089 49.14890365 -52.30078125 31.3203125 C-43.8062177 16.83599259 -30.32929596 6.93603919 -14.23828125 2.3828125 C-9.49785675 1.23156655 -4.85599539 0.46247575 0 0 Z " fill="#49476B" transform="translate(166.05078125,83.8046875)"/>
<path d="M0 0 C25.23076923 0 25.23076923 0 34.75 5.625 C40.41698041 11.60681266 43.60809341 18.00319102 44.25 26.1875 C43.6929739 34.68214803 41.05913507 41.90019959 35 48 C23.83792259 56.64577094 15.90313206 54 0 54 C0 36.18 0 18.36 0 0 Z " fill="#F9F9FA" transform="translate(328,116)"/>
<path d="M0 0 C23 0 23 0 31 4 C33.51698153 6.9102599 33.9511702 8.61633731 34.4375 12.4375 C33.91894272 16.66003788 32.66649168 18.7240245 30 22 C29.01 22.66 28.02 23.32 27 24 C27.55429687 24.39832031 28.10859375 24.79664063 28.6796875 25.20703125 C29.76636719 26.00173828 29.76636719 26.00173828 30.875 26.8125 C31.59429687 27.33457031 32.31359375 27.85664063 33.0546875 28.39453125 C35.90489897 30.74681421 36.92131366 32.65902586 37.75 36.25 C38.03609525 40.54142877 37.72309544 43.05123962 36 47 C33.0263261 50.25131421 30.19628071 52.60123976 26 54 C17.42 54 8.84 54 0 54 C0 36.18 0 18.36 0 0 Z " fill="#4A486B" transform="translate(267,116)"/>
<path d="M0 0 C1.98 0 3.96 0 6 0 C13.0700162 13.14317544 19.67629837 26.46197038 26.03540039 39.96313477 C26.67591129 41.31564867 27.3307395 42.66147901 28 44 C35.0700162 30.85682456 41.67629837 17.53802962 48.03540039 4.03686523 C48.67591129 2.68435133 49.3307395 1.33852099 50 0 C51.98 0 53.96 0 56 0 C56 17.82 56 35.64 56 54 C54.02 54 52.04 54 50 54 C49.67 41.79 49.34 29.58 49 17 C43.06 29.21 37.12 41.42 31 54 C29.02 54 27.04 54 25 54 C23.30889011 50.64764225 21.62284124 47.29276106 19.9375 43.9375 C19.47150391 43.01388672 19.00550781 42.09027344 18.52539062 41.13867188 C14.52032213 33.15578026 10.7818573 25.10397992 7 17 C6.67 29.21 6.34 41.42 6 54 C4.02 54 2.04 54 0 54 C0 36.18 0 18.36 0 0 Z " fill="#49476A" transform="translate(648,116)"/>
<path d="M0 0 C1.98 0 3.96 0 6 0 C10.14728337 8.10924467 14.02708652 16.31698409 17.73217773 24.63623047 C18.56241564 26.49981064 19.39710633 28.36134734 20.23242188 30.22265625 C30 52.03824533 30 52.03824533 30 55 C27.69 55 25.38 55 23 55 C20.525 49.06 20.525 49.06 18 43 C8.1 43 -1.8 43 -12 43 C-13.98 47.95 -13.98 47.95 -16 53 C-16.33 53.66 -16.66 54.32 -17 55 C-19.31 55 -21.62 55 -24 55 C-22.44554621 49.9397568 -20.84053424 45.49751254 -18 41 C-17.25316271 39.31149829 -16.50904971 37.62148313 -15.80004883 35.91674805 C-14.9824651 33.95799009 -14.12786028 32.01978838 -13.26171875 30.08203125 C-10.57048027 24.04294395 -7.91122252 17.98986039 -5.25 11.9375 C-4.74339844 10.78572266 -4.23679687 9.63394531 -3.71484375 8.44726562 C-2.47640856 5.63157807 -1.23813087 2.81582138 0 0 Z " fill="#504E70" transform="translate(611,116)"/>
<path d="M0 0 C1.65 0 3.3 0 5 0 C11.80604459 13.07160917 17.7675854 26.49767002 23.67382812 39.99560547 C24.51764251 41.90723652 25.37434151 43.81327011 26.24804688 45.71142578 C26.61478516 46.50919434 26.98152344 47.30696289 27.359375 48.12890625 C27.83842285 49.15286499 27.83842285 49.15286499 28.32714844 50.19750977 C29 52 29 52 29 55 C27.02 55 25.04 55 23 55 C22.15930585 53.39967863 21.32768495 51.79458829 20.5 50.1875 C20.0359375 49.29417969 19.571875 48.40085938 19.09375 47.48046875 C18 45 18 45 18 42 C8.1 42.33 -1.8 42.66 -12 43 C-13.65 46.3 -15.3 49.6 -17 53 C-18 54 -18 54 -21.0625 54.0625 C-22.031875 54.041875 -23.00125 54.02125 -24 54 C-22.51505566 49.00518723 -20.40468454 44.38723317 -18.2265625 39.66796875 C-16.75657726 36.47051677 -15.37898431 33.23761532 -14 30 C-13.0156382 27.76657408 -12.02314812 25.53694088 -11.02734375 23.30859375 C-10.366953 21.8245978 -9.7127724 20.3378142 -9.06640625 18.84765625 C-6.27711882 12.44734111 -3.15965059 6.22451166 0 0 Z " fill="#4E4D6F" transform="translate(890,116)"/>
<path d="M0 0 C1.98 0 3.96 0 6 0 C23.45102828 37.86454008 23.45102828 37.86454008 30 54 C27.69 54 25.38 54 23 54 C22.15930585 52.39967863 21.32768495 50.79458829 20.5 49.1875 C20.0359375 48.29417969 19.571875 47.40085938 19.09375 46.48046875 C18 44 18 44 18 41 C8.43 41.33 -1.14 41.66 -11 42 C-12.98 45.96 -14.96 49.92 -17 54 C-18.98 54 -20.96 54 -23 54 C-22.33340884 48.95394931 -20.20330163 44.65804463 -18.10546875 40.078125 C-17.71684158 39.218703 -17.32821442 38.35928101 -16.92781067 37.47381592 C-15.68592129 34.73030027 -14.43688079 31.99011102 -13.1875 29.25 C-12.35823873 27.42209506 -11.52945765 25.59397218 -10.70117188 23.765625 C-9.16732464 20.38045336 -7.63015511 16.99682573 -6.09057617 13.61425781 C-4.03386425 9.08788804 -2.01172858 4.54651592 0 0 Z " fill="#4A486B" transform="translate(735,116)"/>
<path d="M0 0 C6 0 6 0 8.28125 2.2109375 C9.0134375 3.25507812 9.745625 4.29921875 10.5 5.375 C11.35911826 6.56622994 12.21989365 7.75626594 13.08203125 8.9453125 C13.54432129 9.5940332 14.00661133 10.24275391 14.48291016 10.91113281 C17.28387889 14.76776115 20.24750752 18.49900213 23.1875 22.25 C24.88389035 24.42757799 26.57880737 26.60626456 28.27099609 28.78710938 C29.49872722 30.35843879 30.73717383 31.92142191 31.98291016 33.47851562 C32.62405762 34.28482422 33.26520508 35.09113281 33.92578125 35.921875 C34.51399658 36.6550293 35.10221191 37.38818359 35.70825195 38.14355469 C37 40 37 40 37 42 C37.66 42 38.32 42 39 42 C39 28.14 39 14.28 39 0 C40.98 0 42.96 0 45 0 C45 17.82 45 35.64 45 54 C39 54 39 54 37.40771484 52.76928711 C37.01277832 52.1944458 36.6178418 51.61960449 36.2109375 51.02734375 C35.75033936 50.38224854 35.28974121 49.73715332 34.81518555 49.07250977 C34.33992432 48.36795654 33.86466309 47.66340332 33.375 46.9375 C32.32922368 45.46443851 31.28098031 43.99312582 30.23046875 42.5234375 C29.69856934 41.77030273 29.16666992 41.01716797 28.61865234 40.24121094 C26.09677486 36.74938057 23.40148338 33.40588182 20.6875 30.0625 C16.39453068 24.75667444 12.17687681 19.39784539 8 14 C7.96241577 15.8097229 7.96241577 15.8097229 7.92407227 17.65600586 C7.83017477 22.11575661 7.72991167 26.57534513 7.62768555 31.03491211 C7.58426959 32.96814185 7.54259958 34.90141159 7.50268555 36.8347168 C7.44514369 39.60738202 7.3814038 42.37984457 7.31640625 45.15234375 C7.29969376 46.02213364 7.28298126 46.89192352 7.26576233 47.78807068 C7.11387171 53.88612829 7.11387171 53.88612829 6 55 C4.02 55 2.04 55 0 55 C0 36.85 0 18.7 0 0 Z " fill="#4E4C6F" transform="translate(771,116)"/>
<path d="M0 0 C25.23076923 0 25.23076923 0 34.75 5.625 C40.41698041 11.60681266 43.60809341 18.00319102 44.25 26.1875 C43.6929739 34.68214803 41.05913507 41.90019959 35 48 C23.83792259 56.64577094 15.90313206 54 0 54 C0 36.18 0 18.36 0 0 Z M6 6 C6 19.86 6 33.72 6 48 C20.7876546 48.8908056 20.7876546 48.8908056 31.76953125 42.28125 C36.94586407 36.55940201 37.3581854 31.92418556 37.2734375 24.296875 C36.73742212 17.834061 34.22844992 13.87403283 29.5 9.5625 C22.62998722 3.8322848 15.10976966 6 6 6 Z " fill="#4A486C" transform="translate(328,116)"/>
<path d="M0 0 C1.98 0 3.96 0 6 0 C6.01458252 1.1144751 6.02916504 2.2289502 6.04418945 3.37719727 C6.1024208 7.5353916 6.17965114 11.69305841 6.26245117 15.85083008 C6.29558413 17.64599 6.32365187 19.44125117 6.34643555 21.23657227 C6.38019664 23.82612012 6.43252125 26.41474971 6.48828125 29.00390625 C6.49467117 29.79898087 6.5010611 30.59405548 6.50764465 31.41322327 C6.66171359 37.33074797 7.57940759 42.48729202 11.84765625 46.91796875 C14.53463251 48.2687717 16.43841662 48.36657501 19.4375 48.3125 C20.82775391 48.30669922 20.82775391 48.30669922 22.24609375 48.30078125 C25.30154639 47.96706515 27.34797822 47.57847608 30 46 C32.26209951 40.93216499 32.33953856 36.10911824 32.4140625 30.6640625 C32.43342865 29.78471039 32.4527948 28.90535828 32.4727478 27.99935913 C32.53222815 25.20800282 32.5788021 22.41660457 32.625 19.625 C32.66320885 17.72524306 32.70226226 15.8255029 32.7421875 13.92578125 C32.83790357 9.2839915 32.9220504 4.64212071 33 0 C34.98 0 36.96 0 39 0 C39.07453648 5.55010083 39.12878399 11.09990586 39.16479492 16.65039062 C39.17981793 18.53585897 39.20024231 20.42129275 39.22631836 22.30664062 C39.26298863 25.0274309 39.27979146 27.74775641 39.29296875 30.46875 C39.30845261 31.30241089 39.32393646 32.13607178 39.33988953 32.99499512 C39.34167205 39.2900588 38.45530953 45.05920881 34.28125 50.05859375 C33.6934375 50.51363281 33.105625 50.96867187 32.5 51.4375 C31.9121875 51.91058594 31.324375 52.38367188 30.71875 52.87109375 C25.7824523 56.11334383 19.65102195 55.50199434 14 55 C8.34926061 53.46728311 5.08219493 50.51154415 1.91015625 45.68359375 C0.29670675 42.69905841 -0.1237546 40.22024652 -0.11352539 36.89575195 C-0.11344986 36.07512772 -0.11337433 35.25450348 -0.11329651 34.40901184 C-0.10813522 33.52767075 -0.10297394 32.64632965 -0.09765625 31.73828125 C-0.0962413 30.83248825 -0.09482635 29.92669525 -0.09336853 28.99345398 C-0.08777001 26.09976909 -0.07521781 23.20616151 -0.0625 20.3125 C-0.05748481 18.35091258 -0.05292193 16.38932394 -0.04882812 14.42773438 C-0.03780107 9.61845979 -0.02053747 4.809243 0 0 Z " fill="#49476B" transform="translate(432,116)"/>
<path d="M0 0 C3.88287451 2.17440973 6.21788621 4.73508643 8.75 8.375 C8.75 9.035 8.75 9.695 8.75 10.375 C6.6875 11.25 6.6875 11.25 3.75 11.375 C2.2109375 10.10546875 2.2109375 10.10546875 0.5625 8.4375 C-2.40774753 5.64312239 -4.35015555 4.87622681 -8.4375 4.75 C-11.66841612 4.96637794 -13.0774491 5.26818278 -15.875 7 C-17.69828677 10.14931352 -17.9087245 11.78861103 -17.25 15.375 C-13.48280436 19.95769967 -9.67989681 21.71263571 -4.3125 23.75 C2.73187747 26.60668776 7.20864021 29.29228043 10.75 36.375 C11.41079455 41.09496108 10.82276042 43.8072816 8.125 47.625 C4.55182941 51.89295376 1.66377671 54.0498752 -4.015625 54.68359375 C-11.57111171 54.99682373 -17.17464797 54.0213676 -22.8828125 48.9140625 C-24.3125 47.375 -24.3125 47.375 -26.25 44.375 C-26.0625 42 -26.0625 42 -25.25 40.375 C-23.27 39.88 -23.27 39.88 -21.25 39.375 C-20.54875 40.48875 -19.8475 41.6025 -19.125 42.75 C-17.27160721 45.31463876 -16.29812432 46.3493337 -13.4375 47.875 C-8.22344328 48.69289125 -2.75586458 48.43898792 1.75 45.375 C3.30024464 42.27451072 3.03992015 39.79605782 2.75 36.375 C-0.77746602 30.37642142 -6.43775142 28.88716067 -12.60742188 26.50195312 C-17.9883817 24.29518004 -21.04808288 22.29858287 -24.25 17.375 C-25.47995551 12.79131487 -24.65421878 9.1545648 -22.5 5 C-16.4965453 -2.00403048 -8.52239785 -3.89733943 0 0 Z " fill="#4A486C" transform="translate(572.25,116.625)"/>
<path d="M0 0 C12.21 0 24.42 0 37 0 C37 1.98 37 3.96 37 6 C32.05 6 27.1 6 22 6 C22 21.84 22 37.68 22 54 C19.69 54 17.38 54 15 54 C15 38.16 15 22.32 15 6 C10.05 6 5.1 6 0 6 C0 4.02 0 2.04 0 0 Z " fill="#535173" transform="translate(824,116)"/>
<path d="M0 0 C12.21 0 24.42 0 37 0 C37 1.98 37 3.96 37 6 C32.05 6 27.1 6 22 6 C22 21.84 22 37.68 22 54 C19.69 54 17.38 54 15 54 C15 38.16 15 22.32 15 6 C10.05 6 5.1 6 0 6 C0 4.02 0 2.04 0 0 Z " fill="#525072" transform="translate(479,116)"/>
<path d="M0 0 C3.14453125 -0.4453125 3.14453125 -0.4453125 7 0 C9.39490167 2.03070701 10.98351999 4.50650986 12.6875 7.125 C13.14705078 7.79015625 13.60660156 8.4553125 14.08007812 9.140625 C15.41168149 11.07819338 16.70586831 13.03729265 18 15 C18.40299316 15.58104492 18.80598633 16.16208984 19.22119141 16.76074219 C22 20.77932692 22 20.77932692 22 23 C25.20690144 20.00736814 27.55445913 16.86351751 29.9375 13.1875 C30.63617188 12.13433594 31.33484375 11.08117187 32.0546875 9.99609375 C33.19623677 8.23792449 34.31628356 6.46481963 35.3828125 4.66015625 C36.5625 2.75 36.5625 2.75 39 0 C42.8125 -0.4375 42.8125 -0.4375 46 0 C41.86830376 6.65583831 37.56287292 13.17043838 33.125 19.625 C32.39253052 20.69137695 32.39253052 20.69137695 31.64526367 21.77929688 C28.13281863 26.86718137 28.13281863 26.86718137 27 28 C26.84193469 29.92478813 26.748865 31.8549921 26.68359375 33.78515625 C26.64169922 34.95498047 26.59980469 36.12480469 26.55664062 37.33007812 C26.51732422 38.56177734 26.47800781 39.79347656 26.4375 41.0625 C26.39431641 42.29806641 26.35113281 43.53363281 26.30664062 44.80664062 C26.20015802 47.87097335 26.09814576 50.93539073 26 54 C24.02 54 22.04 54 20 54 C20.01160156 53.26998779 20.02320313 52.53997559 20.03515625 51.7878418 C20.54198491 32.68132223 20.54198491 32.68132223 11 17 C8.91190375 14.18408511 6.95822067 11.28216056 5 8.375 C4.50709473 7.6619873 4.01418945 6.94897461 3.50634766 6.21435547 C0 1.12897391 0 1.12897391 0 0 Z " fill="#49476B" transform="translate(378,116)"/>
<path d="M0 0 C18.1182266 -0.37746305 18.1182266 -0.37746305 23.5 4.0625 C25.56612065 8.10865294 25.81800958 11.5426825 25 16 C22.41177326 19.88234012 19.39743643 20.80303424 15 22 C12.32306285 22.13519885 9.79039849 22.19162022 7.125 22.125 C4.77375 22.08375 2.4225 22.0425 0 22 C0 14.74 0 7.48 0 0 Z " fill="#F7F7F9" transform="translate(273,143)"/>
<path d="M0 0 C2.31 0 4.62 0 7 0 C7.02526605 7.67211202 7.04283123 15.3442134 7.05493164 23.01635742 C7.05997377 25.62866619 7.06680725 28.24097211 7.07543945 30.85327148 C7.08751036 34.59880268 7.09322935 38.34429672 7.09765625 42.08984375 C7.10281754 43.26586655 7.10797882 44.44188934 7.11329651 45.65354919 C7.11337204 46.73459427 7.11344757 47.81563934 7.11352539 48.92944336 C7.115746 49.88652695 7.11796661 50.84361053 7.12025452 51.82969666 C7 54 7 54 6 55 C4.02 55 2.04 55 0 55 C0 36.85 0 18.7 0 0 Z " fill="#565475" transform="translate(312,116)"/>
<path d="M0 0 C0.66 0 1.32 0 2 0 C3.8392812 4.12237348 5.67041342 8.24831578 7.5 12.375 C8.02464844 13.550625 8.54929687 14.72625 9.08984375 15.9375 C9.83427734 17.61972656 9.83427734 17.61972656 10.59375 19.3359375 C11.05458984 20.37282715 11.51542969 21.4097168 11.99023438 22.47802734 C13 25 13 25 13 27 C5.08 27 -2.84 27 -11 27 C-7.625 16.875 -7.625 16.875 -5.95703125 13.18359375 C-5.43012695 12.00893555 -5.43012695 12.00893555 -4.89257812 10.81054688 C-4.53615234 10.02744141 -4.17972656 9.24433594 -3.8125 8.4375 C-3.44447266 7.61958984 -3.07644531 6.80167969 -2.69726562 5.95898438 C-1.80204987 3.97090782 -0.9015835 1.98519692 0 0 Z " fill="#F8F8F9" transform="translate(613,125)"/>
<path d="M0 0 C3.43765089 4.32347144 5.45152622 9.04493205 7.6875 14.0625 C8.10322266 14.97322266 8.51894531 15.88394531 8.94726562 16.82226562 C9.33978516 17.69689453 9.73230469 18.57152344 10.13671875 19.47265625 C10.49467529 20.26937744 10.85263184 21.06609863 11.22143555 21.88696289 C12 24 12 24 12 27 C4.08 27 -3.84 27 -12 27 C-8.56233912 17.62456123 -4.60180697 8.84554826 0 0 Z " fill="#F9F9FA" transform="translate(892,125)"/>
<path d="M0 0 C0.66 0 1.32 0 2 0 C3.56884528 3.6835243 5.13536632 7.36802712 6.69970703 11.0534668 C7.23259149 12.3079724 7.76611872 13.56220516 8.30029297 14.81616211 C9.0664555 16.61500938 9.830142 18.4149106 10.59375 20.21484375 C11.05458984 21.29886475 11.51542969 22.38288574 11.99023438 23.49975586 C13 26 13 26 13 27 C5.08 27 -2.84 27 -11 27 C-7.625 16.875 -7.625 16.875 -5.95703125 13.18359375 C-5.43012695 12.00893555 -5.43012695 12.00893555 -4.89257812 10.81054688 C-4.53615234 10.02744141 -4.17972656 9.24433594 -3.8125 8.4375 C-3.44447266 7.61958984 -3.07644531 6.80167969 -2.69726562 5.95898438 C-1.80204987 3.97090782 -0.9015835 1.98519692 0 0 Z " fill="#F9F9FA" transform="translate(737,125)"/>
<path d="M0 0 C2.02125 -0.04125 4.0425 -0.0825 6.125 -0.125 C7.83042969 -0.15980469 7.83042969 -0.15980469 9.5703125 -0.1953125 C13.09885086 0.00562932 15.75027978 0.63219323 19 2 C21.48896378 4.89040956 22.02797399 6.3006502 21.875 10.125 C20.98797957 13.03949569 20.38579639 14.18679474 18 16 C14.81453711 17.59273144 11.36800652 17.10141833 7.875 17.0625 C5.27625 17.041875 2.6775 17.02125 0 17 C0 11.39 0 5.78 0 0 Z " fill="#F8F8F9" transform="translate(273,121)"/>
</svg>
